<svg width="125" height="125" viewBox="0 0 125 125" fill="none" xmlns="http://www.w3.org/2000/svg">
<path d="M14.5924 18.0466H65.9164C73.1895 18.0466 79.0869 25.6699 79.0869 35.0716V51.2308L82.1942 52.1433L84.4727 68.2674L82.8986 84.5434L66.6558 84.4441C66.4009 84.4675 66.1713 84.5434 65.9183 84.5434H14.5943C7.31539 84.5434 1.41988 76.9239 1.41988 67.5183V35.0736C1.41599 25.6719 7.31539 18.0466 14.5924 18.0466Z" fill="#009398"/>
<path d="M14.5923 18.0796H65.9164C73.1895 18.0796 79.0869 25.7009 79.0869 35.1046V51.2657L82.1942 52.1782L84.4727 68.3004L83.3792 79.6283L82.1942 71.2676L79.0869 70.3551V54.1959C79.0869 44.7942 73.1914 37.1709 65.9164 37.1709H14.5923C7.31343 37.1709 1.41792 44.7962 1.41792 54.1959V35.1026C1.41792 25.701 7.31343 18.0796 14.5923 18.0796Z" fill="#11B0B6"/>
<path d="M86.0688 37.1828H96.5212C105.254 37.7529 122.621 41.7553 122.288 64.559V72.9528C122.288 80.1345 119.163 85.9541 115.317 85.9541H86.0727C82.2221 85.9541 79.0954 80.1364 79.0954 72.9528V50.1802C79.0954 43.0005 82.2202 37.177 86.0727 37.177" fill="#E3E4E3"/>
<path d="M83.2771 29.1604H89.5423C94.7665 29.46 105.166 31.5381 104.968 43.3816V47.7342C104.968 51.4661 103.09 54.4878 100.792 54.4878H83.281C80.9792 54.4878 79.1055 51.4661 79.1055 47.7342V35.9179C79.1016 32.186 80.9773 29.1604 83.279 29.1604" fill="#E3E4E3"/>
<path d="M99.3988 43.5239H104.641C109.016 43.8508 117.725 46.1409 117.556 59.1869V63.9889C117.556 68.1002 115.994 71.4332 114.062 71.4332H99.3988C97.4667 71.4332 95.8965 68.1002 95.8965 63.9889V50.9624C95.8965 46.855 97.4667 43.5259 99.3988 43.5259" fill="#A2C2CA"/>
<path d="M106.936 59.8372C107.191 54.3386 106.816 48.6844 105.195 43.5049C109.598 43.8551 118.196 46.1958 118.031 59.1679V63.9699C118.031 68.0812 116.465 71.4142 114.532 71.4142H105.004C106.129 67.9333 106.74 64.0828 106.936 59.845" fill="#83AFB7"/>
<path d="M83.1009 89.388C83.104 92.9673 84.528 96.3989 87.06 98.9287C89.592 101.459 93.0249 102.88 96.6041 102.88C100.181 102.877 103.611 101.454 106.141 98.9246C108.67 96.3951 110.093 92.9653 110.096 89.388C110.095 85.8098 108.673 82.3784 106.143 79.8478C103.613 77.3173 100.182 75.8946 96.6041 75.8926C94.8314 75.8921 93.0759 76.2407 91.4378 76.9187C89.7998 77.5966 88.3114 78.5905 87.0575 79.8437C85.8036 81.0969 84.8088 82.5847 84.1299 84.2224C83.4511 85.86 83.1014 87.6153 83.1009 89.388Z" fill="white"/>
<path d="M85.4947 89.3876C85.4973 92.3315 86.6685 95.1539 88.7511 97.2346C90.8336 99.3153 93.657 100.484 96.6009 100.484C99.5427 100.48 102.363 99.3102 104.443 97.23C106.523 95.1498 107.694 92.3295 107.697 89.3876C107.659 86.4689 106.472 83.6827 104.394 81.6324C102.317 79.582 99.515 78.4324 96.596 78.4324C93.677 78.4324 90.8753 79.582 88.7977 81.6324C86.72 83.6827 85.5334 86.4689 85.4947 89.3876Z" fill="#243438"/>
<path d="M89.4054 89.2327C89.4054 91.1413 90.1636 92.9717 91.5131 94.3212C92.8627 95.6708 94.6931 96.4289 96.6016 96.4289C98.5102 96.4289 100.341 95.6708 101.69 94.3212C103.04 92.9717 103.798 91.1413 103.798 89.2327C103.744 87.3596 102.963 85.5812 101.619 84.2752C100.275 82.9691 98.4755 82.2385 96.6016 82.2385C94.7278 82.2385 92.9278 82.9691 91.5841 84.2752C90.2403 85.5812 89.4588 87.3596 89.4054 89.2327Z" fill="#969796"/>
<path d="M27.5587 91.1332C27.5598 94.2497 28.7983 97.2383 31.002 99.4421C33.2057 101.646 36.1943 102.884 39.3109 102.885C42.4271 102.883 45.4151 101.644 47.6186 99.4409C49.8221 97.2374 51.0609 94.2494 51.063 91.1332C51.062 88.0167 49.8235 85.0281 47.6197 82.8244C45.416 80.6206 42.4274 79.3821 39.3109 79.3811C37.7675 79.3811 36.2394 79.6851 34.8135 80.2757C33.3877 80.8663 32.0921 81.7319 31.0009 82.8232C29.9096 83.9145 29.0439 85.21 28.4533 86.6359C27.8627 88.0617 27.5587 89.5899 27.5587 91.1332Z" fill="white"/>
<path d="M29.641 91.1331C29.641 93.6952 30.6588 96.1524 32.4705 97.9641C34.2821 99.7758 36.7393 100.794 39.3014 100.794C41.8636 100.794 44.3207 99.7758 46.1324 97.9641C47.9441 96.1524 48.9619 93.6952 48.9619 91.1331C48.9629 89.865 48.7141 88.6091 48.2296 87.4373C47.745 86.2654 47.0344 85.2004 46.1381 84.3033C45.2419 83.4062 44.1777 82.6944 43.0063 82.2087C41.8349 81.723 40.5793 81.4729 39.3112 81.4727C38.0416 81.4711 36.7843 81.7199 35.611 82.2047C34.4377 82.6895 33.3715 83.4009 32.4733 84.2981C31.5752 85.1954 30.8627 86.2609 30.3767 87.4337C29.8907 88.6065 29.6407 89.8636 29.641 91.1331Z" fill="#243438"/>
<path d="M33.038 91.0023C33.038 91.8255 33.2001 92.6406 33.5152 93.4011C33.8303 94.1616 34.2921 94.8525 34.8742 95.4345C35.4564 96.0165 36.1475 96.4781 36.9081 96.7929C37.6687 97.1078 38.4839 97.2697 39.307 97.2694C40.5454 97.2683 41.7556 96.9001 42.7847 96.2113C43.8139 95.5226 44.6157 94.5442 45.089 93.3999C45.5623 92.2555 45.6857 90.9966 45.4437 89.7821C45.2017 88.5677 44.6051 87.4522 43.7293 86.5767C42.8535 85.7012 41.7379 85.105 40.5233 84.8633C39.3088 84.6217 38.0499 84.7455 36.9057 85.2191C35.7615 85.6927 34.7834 86.4949 34.095 87.5243C33.4066 88.5536 33.0387 89.7639 33.038 91.0023Z" fill="#969796"/>
<path d="M3.52157 91.0036C3.52285 92.5456 3.82784 94.0723 4.41913 95.4965C5.01042 96.9206 5.87643 98.2144 6.96771 99.3039C8.059 100.393 9.35418 101.257 10.7793 101.846C12.2045 102.435 13.7316 102.738 15.2737 102.736C16.8157 102.735 18.3424 102.43 19.7666 101.839C21.1907 101.247 22.4845 100.381 23.574 99.2901C24.6634 98.1988 25.5273 96.9036 26.1162 95.4785C26.7052 94.0533 27.0076 92.5262 27.0063 90.9841C27.0038 87.8699 25.7641 84.8842 23.5602 82.6839C21.3562 80.4836 18.3685 79.2489 15.2542 79.2515C12.14 79.254 9.15425 80.4937 6.95395 82.6976C4.75365 84.9016 3.51899 87.8893 3.52157 91.0036Z" fill="white"/>
<path d="M5.60342 91.0025C5.60652 93.5654 6.62664 96.0222 8.43976 97.8335C10.2529 99.6448 12.7108 100.662 15.2736 100.663C17.8357 100.663 20.2929 99.6452 22.1046 97.8335C23.9163 96.0218 24.9341 93.5646 24.9341 91.0025C24.9341 88.4404 23.9163 85.9832 22.1046 84.1715C20.2929 82.3598 17.8357 81.342 15.2736 81.342C14.0043 81.3413 12.7473 81.5906 11.5743 82.0756C10.4014 82.5607 9.33547 83.2721 8.43748 84.1692C7.5395 85.0663 6.82703 86.1315 6.34076 87.304C5.85448 88.4764 5.60394 89.7332 5.60342 91.0025Z" fill="#243438"/>
<path d="M9.00817 90.8714C8.9935 91.7033 9.1447 92.5298 9.45292 93.3026C9.76114 94.0755 10.2202 94.7792 10.8034 95.3727C11.3865 95.9662 12.082 96.4377 12.8493 96.7595C13.6166 97.0812 14.4403 97.247 15.2724 97.247C16.1044 97.247 16.9282 97.0812 17.6955 96.7595C18.4628 96.4377 19.1583 95.9662 19.7414 95.3727C20.3246 94.7792 20.7836 94.0755 21.0919 93.3026C21.4001 92.5298 21.5513 91.7033 21.5366 90.8714C21.5077 89.2291 20.835 87.6639 19.6634 86.5127C18.4917 85.3616 16.9149 84.7166 15.2724 84.7166C13.6299 84.7166 12.0531 85.3616 10.8814 86.5127C9.70981 87.6639 9.03711 89.2291 9.00817 90.8714Z" fill="#969796"/>
<path d="M118.04 78.3542C118.04 81.6269 119.363 84.2828 121 84.2828C122.634 84.2828 123.959 81.6269 123.959 78.3542V78.2219C123.959 74.9531 122.634 72.3049 121 72.3049C119.363 72.3049 118.04 74.9531 118.04 78.2219V78.3542Z" fill="#F1F1F1"/>
<path d="M0.565987 71.497C0.565987 74.7697 1.88908 77.4178 3.52737 77.4178C5.15983 77.4178 6.48682 74.7697 6.48682 71.497V71.3686C6.48682 68.092 5.15983 65.4438 3.52737 65.4438C1.88713 65.4438 0.565987 68.092 0.565987 71.3686V71.497Z" fill="#046D71"/>
</svg>
