<svg width="34" height="34" viewBox="0 0 34 34" fill="none" xmlns="http://www.w3.org/2000/svg">
<path d="M17 0C7.61016 0 0 7.61016 0 17C0 26.3898 7.61016 34 17 34C26.3898 34 34 26.3898 34 17C34 7.61016 26.3898 0 17 0ZM17 31.1645C9.17734 31.1645 2.83555 24.8227 2.83555 17C2.83555 9.17734 9.17734 2.83555 17 2.83555C24.8227 2.83555 31.1645 9.17734 31.1645 17C31.1645 24.8227 24.8227 31.1645 17 31.1645ZM18.4145 5.66445H15.5789V17L21.9539 23.375L24.0789 21.25L18.4145 15.5855V5.66445V5.66445Z" fill="white"/>
</svg>
